<?xml version="1.0" encoding="UTF-8"?>
<svg version="1.1" xmlns="http://www.w3.org/2000/svg" width="1215" height="1090">
<path d="M0 0 C400.95 0 801.9 0 1215 0 C1215 359.7 1215 719.4 1215 1090 C814.05 1090 413.1 1090 0 1090 C0 730.3 0 370.6 0 0 Z " fill="#FEFEFE" transform="translate(0,0)"/>
<path d="M0 0 C0.85848272 -0.00115384 1.71696544 -0.00230769 2.60146278 -0.0034965 C5.47364199 -0.0061401 8.34576497 -0.00165963 11.21794128 0.00279331 C13.29962044 0.00235715 15.38129955 0.00148141 17.46297836 0.00020415 C23.1799022 -0.00203195 28.89680731 0.0019684 34.61372876 0.00698221 C40.77997159 0.01129919 46.94621336 0.00983939 53.11245728 0.00907993 C63.79479761 0.00855549 74.47713123 0.01165906 85.1594696 0.01731777 C96.36186248 0.02323675 107.56425291 0.02708411 118.76664734 0.02817059 C119.81182111 0.0282737 119.81182111 0.0282737 120.8781095 0.02837889 C124.41678042 0.02871723 127.95545134 0.02901861 131.49412227 0.02930576 C156.55221008 0.03140563 181.61029471 0.03814149 206.66838074 0.04760838 C231.01050296 0.05679415 255.35262431 0.06387711 279.69474792 0.06811619 C280.8204348 0.06831348 280.8204348 0.06831348 281.96886282 0.06851475 C289.50533601 0.06983328 297.04180922 0.0711091 304.57828243 0.07235361 C319.93066225 0.07488976 335.28304201 0.07771101 350.63542175 0.08070469 C351.34128436 0.08084198 352.04714697 0.08097927 352.77439936 0.08112072 C399.90296091 0.09031988 447.03152059 0.10618572 494.16007996 0.12304783 C494.18058453 3.94831649 494.19287845 7.77357077 494.20378113 11.59887791 C494.21256916 13.21050186 494.21256916 13.21050186 494.22153473 14.85468388 C494.23956259 23.30149211 493.67567284 31.44189236 492.47257996 39.81054783 C492.38260742 40.45971165 492.29263489 41.10887547 492.19993591 41.77771091 C487.24446101 77.44285121 474.76492581 112.03867649 453.16007996 141.12304783 C452.70649109 141.73599705 452.25290222 142.34894627 451.78556824 142.9804697 C438.14440749 161.13152731 421.74493557 177.10627396 403.16007996 190.12304783 C402.54390808 190.56261814 401.92773621 191.00218845 401.29289246 191.45507908 C378.91497755 207.35012164 353.985413 218.47298561 327.97257996 226.99804783 C326.93101746 227.34303318 325.88945496 227.68801853 324.81632996 228.04345798 C304.98199766 234.30071758 286.10259841 236.86008882 265.3346405 236.73486423 C262.83831384 236.73841569 260.34198953 236.74420505 257.84567261 236.75203037 C252.51976175 236.76410387 247.19418297 236.76149932 241.86830711 236.74519825 C234.14891906 236.7218672 226.42978401 236.7295547 218.71038661 236.74472944 C206.15314978 236.76887428 193.59599517 236.77325719 181.03874207 236.76269627 C180.29087281 236.76207244 179.54300355 236.76144862 178.77247158 236.76080589 C177.25893987 236.75953461 175.74540816 236.75826037 174.23187645 236.75698318 C173.10636435 236.75603461 173.10636435 236.75603461 171.95811462 236.75506687 C171.2071606 236.75442873 170.45620658 236.75379058 169.68249638 236.7531331 C161.33151885 236.7463192 152.98054247 236.74433595 144.62956238 236.74414158 C143.88111141 236.74411875 143.13266044 236.74409592 142.36152913 236.74407239 C129.83790135 236.74414187 117.31430451 236.75622665 104.79069167 236.77510107 C97.09874143 236.78599133 89.40695511 236.78535353 81.71501318 236.76916133 C75.81466908 236.75736264 69.91439202 236.7605078 64.01403999 236.76879025 C61.61080401 236.76959464 59.20755958 236.76532487 56.80434418 236.75534725 C32.51414675 236.65944697 6.76074798 238.08643431 -12.19148254 255.39257908 C-27.42235845 271.38138956 -30.08569536 292.73552605 -30.15242004 313.81054783 C-30.15805969 315.11701267 -30.16369934 316.42347752 -30.16950989 317.7695322 C-29.996432 340.99130476 -23.20563522 362.42477627 -7.83992004 380.12304783 C-7.21214661 380.89519627 -6.58437317 381.6673447 -5.93757629 382.46289158 C-0.63632478 388.80487958 5.71504464 394.40053017 13.16007996 398.12304783 C15.67744865 398.24069677 18.16861923 398.29828228 20.68713379 398.31250095 C21.47416488 398.32081692 22.26119598 398.32913288 23.0720765 398.33770084 C25.72809739 398.36456577 28.3841254 398.38439182 31.04020691 398.40429783 C32.94197484 398.42210316 34.84373875 398.44034301 36.74549866 398.45898533 C41.95130213 398.50879774 47.15714179 398.55254997 52.36300683 398.59536839 C57.89266292 398.6419563 63.42226429 398.69431728 68.95187378 398.7460947 C79.53196942 398.84432761 90.11210174 398.9377392 100.69225711 399.0292902 C113.5298693 399.14050911 126.36743789 399.25640838 139.20500183 399.37304783 C140.90886413 399.38851658 140.90886413 399.38851658 142.64714789 399.40429783 C149.50745219 399.46660494 156.36775461 399.52911456 163.22805548 399.59179783 C165.51013089 399.61264826 167.79220645 399.63348157 170.07428217 399.65429783 C200.85406111 399.93514737 231.6338038 400.22036768 262.41296959 400.56274509 C265.99897501 400.60257064 269.58499109 400.64081149 273.17103004 400.67749119 C303.94197799 400.99451335 303.94197799 400.99451335 319.23551941 401.52539158 C320.65904236 401.56805149 320.65904236 401.56805149 322.11132336 401.61157322 C365.06226859 403.33587115 406.81179236 424.76776366 438.16007996 453.12304783 C439.03277527 453.91066502 439.90547058 454.6982822 440.80461121 455.50976658 C470.48252942 483.74933657 485.73060471 523.47763565 492.16007996 563.12304783 C492.34844421 564.24179295 492.53680847 565.36053806 492.73088074 566.51318455 C494.47655945 578.3116182 494.46407802 590.07667612 494.42082214 601.98535252 C494.41012122 605.48455308 494.42076103 608.98323798 494.43351746 612.48242283 C494.44177574 625.17529817 493.95936648 637.55572352 492.16007996 650.12304783 C492.01941101 651.16815525 491.87874207 652.21326267 491.73381042 653.29004002 C486.82669561 687.98304072 474.08715127 721.34450549 451.16007996 748.12304783 C450.36472839 749.0589072 449.56937683 749.99476658 448.74992371 750.95898533 C444.22224078 756.13126119 439.49310166 760.79170672 434.16007996 765.12304783 C432.8471698 766.22712986 432.8471698 766.22712986 431.50773621 767.35351658 C410.53397028 784.33227947 385.63354874 795.33576569 359.16007996 800.12304783 C358.41765764 800.25750011 357.67523533 800.3919524 356.91031536 800.53047899 C343.82725832 802.83864127 331.15306713 803.54746665 317.88694763 803.48381138 C315.81965954 803.48512314 313.75237194 803.48775635 311.68508697 803.49157888 C306.06362628 803.49822297 300.44234012 803.4863759 294.82090163 803.47124469 C288.73667051 803.45819991 282.65244798 803.46267972 276.56820679 803.46495152 C266.04648396 803.46651895 255.52481079 803.45727118 245.00310516 803.440238 C233.97809329 803.42243612 222.95310384 803.41092995 211.9280777 803.40767956 C211.24043814 803.40747334 210.55279858 803.40726712 209.84432147 803.40705465 C206.35159834 803.40603954 202.85887519 803.40513543 199.36615202 803.40427402 C174.68074691 803.39798674 149.99537099 803.37781377 125.3099823 803.34936619 C101.34090835 803.32177614 77.37184241 803.30054335 53.40275574 803.28784275 C52.29288284 803.28725088 52.29288284 803.28725088 51.16058827 803.28664706 C43.72949096 803.28269121 36.29839359 803.27886381 28.86729617 803.27513048 C13.7317157 803.26752354 -1.40386426 803.25905979 -16.53944397 803.25007725 C-17.58311726 803.24945944 -17.58311726 803.24945944 -18.64787487 803.24882916 C-65.04523562 803.22126598 -111.44257932 803.17367224 -157.83992004 803.12304783 C-157.84671908 800.11523145 -157.85165358 797.10743075 -157.85554504 794.09961033 C-157.85763977 793.25728855 -157.8597345 792.41496677 -157.8618927 791.54712009 C-157.91905957 732.46516438 -134.98931158 677.31029041 -93.83992004 635.12304783 C-85.17729361 626.53281103 -75.73798212 619.22500557 -65.83992004 612.12304783 C-65.26499817 611.70200779 -64.69007629 611.28096775 -64.09773254 610.84716892 C-38.86506006 592.46315314 -8.81553559 580.26047394 21.16007996 572.12304783 C21.96827085 571.89958191 22.77646173 571.676116 23.60914326 571.44587839 C38.78619955 567.32908064 53.08174691 566.41129219 68.75187683 566.49536228 C71.23484328 566.4901697 73.71780592 566.48275911 76.20075989 566.47332859 C81.49995218 566.45789062 86.7988174 566.4571832 92.09799194 566.47033215 C99.77443821 566.48917401 107.45062995 566.47806502 115.12706739 566.45985558 C127.60846609 566.43085419 140.0897848 566.4223249 152.57121277 566.42846775 C164.64478978 566.43433829 176.7183398 566.4353855 188.79191589 566.42651463 C189.53691721 566.42597205 190.28191852 566.42542948 191.04949564 566.42487047 C199.19710235 566.41869393 207.34470232 566.40994494 215.49230194 566.39751816 C216.56858415 566.39587943 216.56858415 566.39587943 217.66660944 566.39420759 C220.53611127 566.38978708 223.40561294 566.38531236 226.27511412 566.38048198 C234.63719257 566.36643106 242.99918092 566.36028203 251.36126822 566.36901786 C257.22520937 566.37484575 263.08911937 566.37115381 268.95306015 566.36419773 C271.34668451 566.36311714 273.74031337 566.36544572 276.13393021 566.37154293 C287.98310831 566.4002652 299.48625024 566.38796344 311.16007996 564.12304783 C312.30828342 563.91369335 312.30828342 563.91369335 313.47968292 563.70010948 C330.18314408 560.43905017 344.27848525 553.26576957 354.91007996 539.62304783 C357.78554573 535.25206795 359.69342205 530.70377916 361.47257996 525.81054783 C361.71524597 525.1479697 361.95791199 524.48539158 362.20793152 523.80273533 C366.19968329 511.99121523 366.56885441 499.71812099 366.53507996 487.37304783 C366.53453613 486.62325657 366.53399231 485.87346531 366.53343201 485.1009531 C366.49632762 473.97616824 365.98450925 463.68179826 362.16007996 453.12304783 C361.72437683 451.90488377 361.28867371 450.6867197 360.83976746 449.43164158 C355.89720901 436.91319437 348.42608402 426.77443724 339.16007996 417.12304783 C338.54004089 416.46304783 337.92000183 415.80304783 337.28117371 415.12304783 C335.60783892 413.38607391 333.97259867 411.71552826 332.16007996 410.12304783 C331.19787537 409.2775034 330.23567078 408.43195896 329.24430847 407.56079197 C324.40009115 404.15621985 319.66611917 404.41241907 313.91398621 404.45117283 C312.18997589 404.4325922 312.18997589 404.4325922 310.43113708 404.41363621 C307.21196276 404.38354355 303.99356778 404.37553484 300.77428055 404.37606907 C297.27537279 404.37091674 293.77675068 404.33634285 290.27799988 404.30468845 C283.90213804 404.2504324 277.52633499 404.21311737 271.15031433 404.1835947 C253.17011869 404.09710652 235.19068261 403.89815654 217.21120358 403.72095203 C210.51577295 403.65552017 203.82032463 403.59556943 197.12479687 403.54099751 C174.64955537 403.35766552 152.18253814 403.08132988 129.71250343 402.55606174 C116.12248676 402.23851252 102.53423425 401.99360043 88.94132996 401.84179783 C88.09417105 401.83220539 87.24701214 401.82261295 86.37418175 401.81272984 C78.74036744 401.72691424 71.10648948 401.64762793 63.47257996 401.57080173 C17.04888193 401.099107 -24.09002404 398.79560578 -65.83992004 376.12304783 C-66.46173157 375.78724705 -67.08354309 375.45144627 -67.72419739 375.1054697 C-90.4907028 362.62385893 -110.65348936 343.83839504 -124.83992004 322.12304783 C-125.23082825 321.52846775 -125.62173645 320.93388767 -126.02449036 320.32129002 C-141.95580821 295.75106507 -151.67821114 267.98645533 -155.44563293 238.98779392 C-155.71556009 237.02660182 -156.02676854 235.07077324 -156.37287903 233.12158298 C-158.11419187 222.84284009 -158.11026636 212.69363656 -158.04573059 202.29248142 C-158.02749588 199.26065682 -158.02522158 196.22914037 -158.02546692 193.19726658 C-157.99913332 177.94068486 -157.59256801 162.89557638 -155.08992004 147.81054783 C-154.91436584 146.74368748 -154.73881165 145.67682713 -154.55793762 144.57763767 C-149.03353572 112.26290865 -136.71366701 79.9691855 -114.83992004 55.12304783 C-114.12062317 54.28257908 -113.40132629 53.44211033 -112.66023254 52.57617283 C-85.37182438 21.30618197 -41.84204314 -0.13985224 0 0 Z " fill="#000000" transform="translate(350.8399200439453,163.87695217132568)"/>
<path d="M0 0 C59.4 0 118.8 0 180 0 C180 53.13 180 106.26 180 161 C120.6 161 61.2 161 0 161 C0 107.87 0 54.74 0 0 Z " fill="#010101" transform="translate(950,805)"/>
<path d="M0 0 C1.78135194 -0.00106348 3.56270371 -0.00245175 5.34405518 -0.00413513 C10.10827144 -0.00692114 14.87245375 -0.00256686 19.63666534 0.00403976 C22.62339825 0.00784029 25.61012796 0.00988852 28.59686279 0.01150513 C57.77447983 0.03006314 86.94945551 0.20213966 116.1251297 0.53897858 C118.81849896 0.56993251 121.5118786 0.59981245 124.20526123 0.62957764 C143.56113339 0.84709174 162.8899264 1.18234394 182.2265625 2.1328125 C181.5871875 2.2565625 180.9478125 2.3803125 180.2890625 2.5078125 C179.6084375 2.7140625 178.9278125 2.9203125 178.2265625 3.1328125 C177.8965625 3.7928125 177.5665625 4.4528125 177.2265625 5.1328125 C176.64318115 5.12250504 176.0597998 5.11219757 175.45874023 5.10157776 C167.38144946 4.95993114 159.30404013 4.82581052 151.2265625 4.6953125 C150.53679195 4.68414398 149.84702141 4.67297546 149.13634872 4.66146851 C128.21526101 4.32437721 107.29401317 4.07109827 86.37109375 3.87890625 C85.24998074 3.86854403 84.12886772 3.8581818 82.97378159 3.84750557 C71.71386184 3.74376262 60.45392047 3.64380544 49.19389534 3.55218601 C20.19789986 3.31390724 -8.78511771 2.8444079 -37.7734375 2.1328125 C-37.7734375 1.8028125 -37.7734375 1.4728125 -37.7734375 1.1328125 C-25.16938729 0.36104615 -12.62632572 -0.01681488 0 0 Z " fill="#070707" transform="translate(498.7734375,563.8671875)"/>
<path d="M0 0 C2.01308659 0.00187134 4.02617365 0.00329184 6.03926086 0.00428772 C11.26853758 0.00805665 16.49778531 0.01783695 21.72705078 0.0289917 C27.09081633 0.03932868 32.45458668 0.04381132 37.81835938 0.04882812 C48.29167921 0.05946588 58.7649778 0.07647225 69.23828125 0.09765625 C69.23828125 0.42765625 69.23828125 0.75765625 69.23828125 1.09765625 C61.31828125 1.42765625 53.39828125 1.75765625 45.23828125 2.09765625 C45.23828125 2.42765625 45.23828125 2.75765625 45.23828125 3.09765625 C16.55651321 3.25237118 -12.0894358 2.83124215 -40.76171875 2.09765625 C-40.76171875 1.76765625 -40.76171875 1.43765625 -40.76171875 1.09765625 C-27.16041008 0.23406847 -13.62636019 -0.03793651 0 0 Z " fill="#404040" transform="translate(501.76171875,563.90234375)"/>
<path d="M0 0 C19.03128328 -0.11886551 37.98700838 0.02337639 57 1 C56.0409375 1.185625 56.0409375 1.185625 55.0625 1.375 C54.381875 1.58125 53.70125 1.7875 53 2 C52.67 2.66 52.34 3.32 52 4 C30.55 3.67 9.1 3.34 -13 3 C-13 2.67 -13 2.34 -13 2 C-6.565 1.505 -6.565 1.505 0 1 C0 0.67 0 0.34 0 0 Z " fill="#212121" transform="translate(624,565)"/>
</svg>
